<svg width="1416" height="277" viewBox="0 0 1416 277" fill="none" xmlns="http://www.w3.org/2000/svg">
    <path d="M16.3807 232V96.7273H62.0881C72.7003 96.7273 81.375 98.6428 88.1122 102.474C94.8935 106.261 99.9134 111.391 103.172 117.864C106.43 124.337 108.06 131.558 108.06 139.528C108.06 147.499 106.43 154.742 103.172 161.259C99.9574 167.776 94.9815 172.972 88.2443 176.847C81.5071 180.678 72.8764 182.594 62.3523 182.594H29.5909V168.062H61.8239C69.0895 168.062 74.924 166.808 79.3274 164.298C83.7308 161.788 86.9233 158.397 88.9048 154.126C90.9304 149.81 91.9432 144.945 91.9432 139.528C91.9432 134.112 90.9304 129.268 88.9048 124.997C86.9233 120.726 83.7088 117.379 79.2614 114.957C74.8139 112.491 68.9134 111.259 61.5597 111.259H32.7614V232H16.3807ZM132.333 232V130.545H147.393V145.869H148.45C150.299 140.849 153.646 136.776 158.49 133.65C163.333 130.523 168.794 128.96 174.87 128.96C176.015 128.96 177.446 128.982 179.164 129.026C180.881 129.07 182.18 129.136 183.061 129.224V145.077C182.532 144.945 181.321 144.746 179.428 144.482C177.578 144.174 175.619 144.02 173.549 144.02C168.618 144.02 164.214 145.055 160.339 147.124C156.508 149.15 153.47 151.968 151.224 155.579C149.022 159.146 147.922 163.219 147.922 167.798V232H132.333ZM201.539 232V130.545H217.127V232H201.539ZM209.465 113.636C206.426 113.636 203.806 112.602 201.605 110.532C199.447 108.462 198.368 105.974 198.368 103.068C198.368 100.162 199.447 97.674 201.605 95.6044C203.806 93.5348 206.426 92.5 209.465 92.5C212.503 92.5 215.101 93.5348 217.259 95.6044C219.46 97.674 220.561 100.162 220.561 103.068C220.561 105.974 219.46 108.462 217.259 110.532C215.101 112.602 212.503 113.636 209.465 113.636ZM328.637 130.545L291.12 232H275.268L237.751 130.545H254.66L282.666 211.392H283.723L311.728 130.545H328.637ZM375.98 234.378C369.551 234.378 363.716 233.167 358.476 230.745C353.236 228.279 349.075 224.734 345.992 220.111C342.91 215.443 341.369 209.807 341.369 203.202C341.369 197.389 342.514 192.678 344.803 189.067C347.093 185.412 350.154 182.55 353.985 180.48C357.816 178.411 362.043 176.869 366.666 175.857C371.334 174.8 376.024 173.963 380.735 173.347C386.9 172.554 391.898 171.96 395.729 171.563C399.604 171.123 402.422 170.396 404.183 169.384C405.989 168.371 406.892 166.609 406.892 164.099V163.571C406.892 157.054 405.108 151.99 401.541 148.379C398.019 144.768 392.669 142.963 385.491 142.963C378.049 142.963 372.215 144.592 367.987 147.851C363.76 151.109 360.788 154.588 359.07 158.287L344.275 153.003C346.917 146.838 350.44 142.038 354.843 138.604C359.291 135.125 364.134 132.703 369.374 131.338C374.659 129.929 379.855 129.224 384.963 129.224C388.221 129.224 391.964 129.621 396.191 130.413C400.463 131.162 404.58 132.725 408.543 135.103C412.55 137.481 415.874 141.07 418.517 145.869C421.159 150.669 422.48 157.098 422.48 165.156V232H406.892V218.261H406.099C405.042 220.463 403.281 222.819 400.815 225.329C398.349 227.839 395.068 229.974 390.973 231.736C386.878 233.497 381.88 234.378 375.98 234.378ZM378.357 220.375C384.522 220.375 389.718 219.164 393.945 216.742C398.217 214.32 401.431 211.194 403.589 207.363C405.791 203.532 406.892 199.503 406.892 195.276V181.009C406.231 181.801 404.778 182.528 402.532 183.188C400.33 183.805 397.776 184.355 394.87 184.839C392.008 185.28 389.212 185.676 386.482 186.028C383.796 186.337 381.616 186.601 379.943 186.821C375.892 187.349 372.105 188.208 368.582 189.397C365.103 190.542 362.285 192.281 360.127 194.615C358.014 196.905 356.957 200.031 356.957 203.994C356.957 209.411 358.96 213.506 362.968 216.28C367.019 219.01 372.149 220.375 378.357 220.375ZM495.053 130.545V143.756H442.477V130.545H495.053ZM457.8 106.239H473.388V202.938C473.388 207.341 474.027 210.643 475.304 212.845C476.625 215.003 478.298 216.456 480.324 217.205C482.393 217.909 484.573 218.261 486.863 218.261C488.58 218.261 489.989 218.173 491.09 217.997C492.191 217.777 493.072 217.601 493.732 217.469L496.903 231.472C495.846 231.868 494.371 232.264 492.477 232.661C490.584 233.101 488.184 233.321 485.278 233.321C480.874 233.321 476.559 232.374 472.332 230.481C468.148 228.587 464.67 225.703 461.896 221.828C459.165 217.953 457.8 213.065 457.8 207.165V106.239ZM559.949 234.114C550.173 234.114 541.74 231.956 534.651 227.641C527.605 223.281 522.167 217.205 518.336 209.411C514.549 201.572 512.656 192.457 512.656 182.065C512.656 171.673 514.549 162.514 518.336 154.588C522.167 146.618 527.495 140.409 534.321 135.962C541.19 131.47 549.204 129.224 558.363 129.224C563.647 129.224 568.865 130.105 574.017 131.866C579.169 133.628 583.859 136.49 588.086 140.453C592.314 144.372 595.682 149.568 598.192 156.041C600.702 162.514 601.957 170.484 601.957 179.952V186.557H523.752V173.082H586.105C586.105 167.358 584.96 162.25 582.67 157.759C580.424 153.267 577.21 149.722 573.027 147.124C568.887 144.526 564 143.227 558.363 143.227C552.154 143.227 546.782 144.768 542.247 147.851C537.755 150.889 534.299 154.852 531.877 159.74C529.455 164.628 528.244 169.868 528.244 175.46V184.443C528.244 192.105 529.565 198.6 532.207 203.928C534.893 209.212 538.614 213.241 543.37 216.016C548.125 218.746 553.652 220.111 559.949 220.111C564.044 220.111 567.743 219.538 571.045 218.393C574.392 217.205 577.276 215.443 579.698 213.109C582.12 210.732 583.991 207.781 585.312 204.259L600.372 208.486C598.787 213.594 596.123 218.085 592.38 221.96C588.637 225.791 584.013 228.786 578.509 230.943C573.005 233.057 566.818 234.114 559.949 234.114ZM716.556 96.7273H732.936V186.293C732.936 195.54 730.757 203.796 726.397 211.062C722.082 218.283 715.983 223.986 708.101 228.169C700.219 232.308 690.972 234.378 680.36 234.378C669.748 234.378 660.5 232.308 652.618 228.169C644.736 223.986 638.615 218.283 634.256 211.062C629.941 203.796 627.783 195.54 627.783 186.293V96.7273H644.164V184.972C644.164 191.577 645.617 197.455 648.523 202.607C651.429 207.715 655.569 211.744 660.941 214.695C666.357 217.601 672.83 219.054 680.36 219.054C687.89 219.054 694.363 217.601 699.779 214.695C705.195 211.744 709.334 207.715 712.196 202.607C715.103 197.455 716.556 191.577 716.556 184.972V96.7273ZM763.535 270.045V130.545H778.594V146.662H780.444C781.589 144.901 783.174 142.655 785.199 139.925C787.269 137.151 790.219 134.685 794.05 132.527C797.925 130.325 803.165 129.224 809.77 129.224C818.313 129.224 825.843 131.36 832.36 135.631C838.877 139.903 843.963 145.957 847.618 153.795C851.273 161.634 853.1 170.881 853.1 181.537C853.1 192.281 851.273 201.594 847.618 209.477C843.963 217.315 838.899 223.391 832.426 227.707C825.953 231.978 818.489 234.114 810.035 234.114C803.518 234.114 798.3 233.035 794.381 230.877C790.461 228.675 787.445 226.187 785.331 223.413C783.218 220.595 781.589 218.261 780.444 216.412H779.123V270.045H763.535ZM778.858 181.273C778.858 188.935 779.981 195.694 782.227 201.55C784.473 207.363 787.753 211.92 792.069 215.223C796.384 218.482 801.668 220.111 807.921 220.111C814.438 220.111 819.876 218.393 824.236 214.959C828.639 211.48 831.942 206.812 834.143 200.956C836.389 195.055 837.512 188.494 837.512 181.273C837.512 174.139 836.411 167.71 834.209 161.986C832.052 156.217 828.771 151.66 824.368 148.313C820.008 144.923 814.526 143.227 807.921 143.227C801.58 143.227 796.252 144.835 791.937 148.049C787.621 151.219 784.363 155.667 782.161 161.391C779.959 167.072 778.858 173.699 778.858 181.273ZM892.466 96.7273V232H876.878V96.7273H892.466ZM962.233 234.114C953.074 234.114 945.038 231.934 938.124 227.575C931.255 223.215 925.883 217.116 922.008 209.278C918.177 201.44 916.261 192.281 916.261 181.801C916.261 171.233 918.177 162.008 922.008 154.126C925.883 146.244 931.255 140.123 938.124 135.763C945.038 131.404 953.074 129.224 962.233 129.224C971.392 129.224 979.406 131.404 986.276 135.763C993.189 140.123 998.561 146.244 1002.39 154.126C1006.27 162.008 1008.2 171.233 1008.2 181.801C1008.2 192.281 1006.27 201.44 1002.39 209.278C998.561 217.116 993.189 223.215 986.276 227.575C979.406 231.934 971.392 234.114 962.233 234.114ZM962.233 220.111C969.19 220.111 974.915 218.327 979.406 214.761C983.898 211.194 987.222 206.504 989.38 200.692C991.538 194.879 992.616 188.582 992.616 181.801C992.616 175.02 991.538 168.701 989.38 162.844C987.222 156.988 983.898 152.254 979.406 148.643C974.915 145.033 969.19 143.227 962.233 143.227C955.276 143.227 949.551 145.033 945.06 148.643C940.568 152.254 937.244 156.988 935.086 162.844C932.928 168.701 931.849 175.02 931.849 181.801C931.849 188.582 932.928 194.879 935.086 200.692C937.244 206.504 940.568 211.194 945.06 214.761C949.551 218.327 955.276 220.111 962.233 220.111ZM1061.85 234.378C1055.43 234.378 1049.59 233.167 1044.35 230.745C1039.11 228.279 1034.95 224.734 1031.87 220.111C1028.78 215.443 1027.24 209.807 1027.24 203.202C1027.24 197.389 1028.39 192.678 1030.68 189.067C1032.97 185.412 1036.03 182.55 1039.86 180.48C1043.69 178.411 1047.92 176.869 1052.54 175.857C1057.21 174.8 1061.9 173.963 1066.61 173.347C1072.78 172.554 1077.77 171.96 1081.6 171.563C1085.48 171.123 1088.3 170.396 1090.06 169.384C1091.86 168.371 1092.77 166.609 1092.77 164.099V163.571C1092.77 157.054 1090.98 151.99 1087.42 148.379C1083.89 144.768 1078.54 142.963 1071.37 142.963C1063.92 142.963 1058.09 144.592 1053.86 147.851C1049.64 151.109 1046.66 154.588 1044.95 158.287L1030.15 153.003C1032.79 146.838 1036.31 142.038 1040.72 138.604C1045.17 135.125 1050.01 132.703 1055.25 131.338C1060.53 129.929 1065.73 129.224 1070.84 129.224C1074.1 129.224 1077.84 129.621 1082.07 130.413C1086.34 131.162 1090.45 132.725 1094.42 135.103C1098.42 137.481 1101.75 141.07 1104.39 145.869C1107.03 150.669 1108.35 157.098 1108.35 165.156V232H1092.77V218.261H1091.97C1090.92 220.463 1089.16 222.819 1086.69 225.329C1084.22 227.839 1080.94 229.974 1076.85 231.736C1072.75 233.497 1067.76 234.378 1061.85 234.378ZM1064.23 220.375C1070.4 220.375 1075.59 219.164 1079.82 216.742C1084.09 214.32 1087.31 211.194 1089.46 207.363C1091.67 203.532 1092.77 199.503 1092.77 195.276V181.009C1092.11 181.801 1090.65 182.528 1088.41 183.188C1086.21 183.805 1083.65 184.355 1080.75 184.839C1077.88 185.28 1075.09 185.676 1072.36 186.028C1069.67 186.337 1067.49 186.601 1065.82 186.821C1061.77 187.349 1057.98 188.208 1054.46 189.397C1050.98 190.542 1048.16 192.281 1046 194.615C1043.89 196.905 1042.83 200.031 1042.83 203.994C1042.83 209.411 1044.84 213.506 1048.84 216.28C1052.89 219.01 1058.02 220.375 1064.23 220.375ZM1175.12 234.114C1166.66 234.114 1159.2 231.978 1152.72 227.707C1146.25 223.391 1141.19 217.315 1137.53 209.477C1133.88 201.594 1132.05 192.281 1132.05 181.537C1132.05 170.881 1133.88 161.634 1137.53 153.795C1141.19 145.957 1146.27 139.903 1152.79 135.631C1159.31 131.36 1166.84 129.224 1175.38 129.224C1181.99 129.224 1187.2 130.325 1191.03 132.527C1194.91 134.685 1197.86 137.151 1199.88 139.925C1201.95 142.655 1203.56 144.901 1204.71 146.662H1206.03V96.7273H1221.62V232H1206.56V216.412H1204.71C1203.56 218.261 1201.93 220.595 1199.82 223.413C1197.71 226.187 1194.69 228.675 1190.77 230.877C1186.85 233.035 1181.63 234.114 1175.12 234.114ZM1177.23 220.111C1183.48 220.111 1188.77 218.482 1193.08 215.223C1197.4 211.92 1200.68 207.363 1202.92 201.55C1205.17 195.694 1206.29 188.935 1206.29 181.273C1206.29 173.699 1205.19 167.072 1202.99 161.391C1200.79 155.667 1197.53 151.219 1193.21 148.049C1188.9 144.835 1183.57 143.227 1177.23 143.227C1170.62 143.227 1165.12 144.923 1160.72 148.313C1156.36 151.66 1153.08 156.217 1150.88 161.986C1148.72 167.71 1147.64 174.139 1147.64 181.273C1147.64 188.494 1148.74 195.055 1150.94 200.956C1153.19 206.812 1156.49 211.48 1160.85 214.959C1165.25 218.393 1170.71 220.111 1177.23 220.111ZM1294.87 234.114C1285.09 234.114 1276.66 231.956 1269.57 227.641C1262.52 223.281 1257.09 217.205 1253.25 209.411C1249.47 201.572 1247.57 192.457 1247.57 182.065C1247.57 171.673 1249.47 162.514 1253.25 154.588C1257.09 146.618 1262.41 140.409 1269.24 135.962C1276.11 131.47 1284.12 129.224 1293.28 129.224C1298.57 129.224 1303.78 130.105 1308.94 131.866C1314.09 133.628 1318.78 136.49 1323 140.453C1327.23 144.372 1330.6 149.568 1333.11 156.041C1335.62 162.514 1336.88 170.484 1336.88 179.952V186.557H1258.67V173.082H1321.02C1321.02 167.358 1319.88 162.25 1317.59 157.759C1315.34 153.267 1312.13 149.722 1307.94 147.124C1303.81 144.526 1298.92 143.227 1293.28 143.227C1287.07 143.227 1281.7 144.768 1277.16 147.851C1272.67 150.889 1269.22 154.852 1266.79 159.74C1264.37 164.628 1263.16 169.868 1263.16 175.46V184.443C1263.16 192.105 1264.48 198.6 1267.12 203.928C1269.81 209.212 1273.53 213.241 1278.29 216.016C1283.04 218.746 1288.57 220.111 1294.87 220.111C1298.96 220.111 1302.66 219.538 1305.96 218.393C1309.31 217.205 1312.19 215.443 1314.62 213.109C1317.04 210.732 1318.91 207.781 1320.23 204.259L1335.29 208.486C1333.7 213.594 1331.04 218.085 1327.3 221.96C1323.55 225.791 1318.93 228.786 1313.43 230.943C1307.92 233.057 1301.74 234.114 1294.87 234.114ZM1360.59 232V130.545H1375.65V145.869H1376.7C1378.55 140.849 1381.9 136.776 1386.74 133.65C1391.59 130.523 1397.05 128.96 1403.12 128.96C1404.27 128.96 1405.7 128.982 1407.42 129.026C1409.13 129.07 1410.43 129.136 1411.31 129.224V145.077C1410.79 144.945 1409.58 144.746 1407.68 144.482C1405.83 144.174 1403.87 144.02 1401.8 144.02C1396.87 144.02 1392.47 145.055 1388.59 147.124C1384.76 149.15 1381.72 151.968 1379.48 155.579C1377.28 159.146 1376.18 163.219 1376.18 167.798V232H1360.59Z"
          fill="url(#paint0_linear_105_2)"/>
    <path d="M3.1875 33.1562V28H39.1875V33.1562H24.0938V76H18.2813V33.1562H3.1875ZM43.6699 76V40H49.0137V45.4375H49.3887C50.0449 43.6563 51.2324 42.2109 52.9512 41.1016C54.6699 39.9922 56.6074 39.4375 58.7637 39.4375C59.1699 39.4375 59.6777 39.4453 60.2871 39.4609C60.8965 39.4766 61.3574 39.5 61.6699 39.5313V45.1562C61.4824 45.1094 61.0527 45.0391 60.3809 44.9453C59.7246 44.8359 59.0293 44.7812 58.2949 44.7812C56.5449 44.7812 54.9824 45.1484 53.6074 45.8828C52.248 46.6016 51.1699 47.6016 50.373 48.8828C49.5918 50.1484 49.2012 51.5937 49.2012 53.2187V76H43.6699ZM81.7559 76.75C78.5059 76.75 75.6543 75.9766 73.2012 74.4297C70.7637 72.8828 68.8574 70.7187 67.4824 67.9375C66.123 65.1562 65.4434 61.9062 65.4434 58.1875C65.4434 54.4375 66.123 51.1641 67.4824 48.3672C68.8574 45.5703 70.7637 43.3984 73.2012 41.8516C75.6543 40.3047 78.5059 39.5313 81.7559 39.5313C85.0059 39.5313 87.8496 40.3047 90.2871 41.8516C92.7402 43.3984 94.6465 45.5703 96.0059 48.3672C97.3809 51.1641 98.0684 54.4375 98.0684 58.1875C98.0684 61.9062 97.3809 65.1562 96.0059 67.9375C94.6465 70.7187 92.7402 72.8828 90.2871 74.4297C87.8496 75.9766 85.0059 76.75 81.7559 76.75ZM81.7559 71.7813C84.2246 71.7813 86.2559 71.1484 87.8496 69.8828C89.4434 68.6172 90.623 66.9531 91.3887 64.8906C92.1543 62.8281 92.5371 60.5937 92.5371 58.1875C92.5371 55.7812 92.1543 53.5391 91.3887 51.4609C90.623 49.3828 89.4434 47.7031 87.8496 46.4219C86.2559 45.1406 84.2246 44.5 81.7559 44.5C79.2871 44.5 77.2559 45.1406 75.6621 46.4219C74.0684 47.7031 72.8887 49.3828 72.123 51.4609C71.3574 53.5391 70.9746 55.7812 70.9746 58.1875C70.9746 60.5937 71.3574 62.8281 72.123 64.8906C72.8887 66.9531 74.0684 68.6172 75.6621 69.8828C77.2559 71.1484 79.2871 71.7813 81.7559 71.7813ZM106.512 89.5V40H111.855V45.7187H112.512C112.918 45.0937 113.48 44.2969 114.199 43.3281C114.934 42.3437 115.98 41.4688 117.34 40.7031C118.715 39.9219 120.574 39.5313 122.918 39.5313C125.949 39.5313 128.621 40.2891 130.934 41.8047C133.246 43.3203 135.051 45.4687 136.348 48.25C137.645 51.0312 138.293 54.3125 138.293 58.0938C138.293 61.9062 137.645 65.2109 136.348 68.0078C135.051 70.7891 133.254 72.9453 130.957 74.4766C128.66 75.9922 126.012 76.75 123.012 76.75C120.699 76.75 118.848 76.3672 117.457 75.6016C116.066 74.8203 114.996 73.9375 114.246 72.9531C113.496 71.9531 112.918 71.125 112.512 70.4687H112.043V89.5H106.512ZM111.949 58C111.949 60.7187 112.348 63.1172 113.145 65.1953C113.941 67.2578 115.105 68.875 116.637 70.0469C118.168 71.2031 120.043 71.7813 122.262 71.7813C124.574 71.7813 126.504 71.1719 128.051 69.9531C129.613 68.7187 130.785 67.0625 131.566 64.9844C132.363 62.8906 132.762 60.5625 132.762 58C132.762 55.4687 132.371 53.1875 131.59 51.1562C130.824 49.1094 129.66 47.4922 128.098 46.3047C126.551 45.1016 124.605 44.5 122.262 44.5C120.012 44.5 118.121 45.0703 116.59 46.2109C115.059 47.3359 113.902 48.9141 113.121 50.9453C112.34 52.9609 111.949 55.3125 111.949 58ZM152.262 28V76H146.73V28H152.262ZM177.018 76.75C173.768 76.75 170.916 75.9766 168.463 74.4297C166.025 72.8828 164.119 70.7187 162.744 67.9375C161.385 65.1562 160.705 61.9062 160.705 58.1875C160.705 54.4375 161.385 51.1641 162.744 48.3672C164.119 45.5703 166.025 43.3984 168.463 41.8516C170.916 40.3047 173.768 39.5313 177.018 39.5313C180.268 39.5313 183.111 40.3047 185.549 41.8516C188.002 43.3984 189.908 45.5703 191.268 48.3672C192.643 51.1641 193.33 54.4375 193.33 58.1875C193.33 61.9062 192.643 65.1562 191.268 67.9375C189.908 70.7187 188.002 72.8828 185.549 74.4297C183.111 75.9766 180.268 76.75 177.018 76.75ZM177.018 71.7813C179.486 71.7813 181.518 71.1484 183.111 69.8828C184.705 68.6172 185.885 66.9531 186.65 64.8906C187.416 62.8281 187.799 60.5937 187.799 58.1875C187.799 55.7812 187.416 53.5391 186.65 51.4609C185.885 49.3828 184.705 47.7031 183.111 46.4219C181.518 45.1406 179.486 44.5 177.018 44.5C174.549 44.5 172.518 45.1406 170.924 46.4219C169.33 47.7031 168.15 49.3828 167.385 51.4609C166.619 53.5391 166.236 55.7812 166.236 58.1875C166.236 60.5937 166.619 62.8281 167.385 64.8906C168.15 66.9531 169.33 68.6172 170.924 69.8828C172.518 71.1484 174.549 71.7813 177.018 71.7813Z"
          fill="url(#paint1_linear_105_2)"/>
    <defs>
        <linearGradient id="paint0_linear_105_2" x1="708" y1="52" x2="708" y2="277" gradientUnits="userSpaceOnUse">
            <stop stop-color="#0179F3"/>
            <stop offset="1" stop-color="#0190EA"/>
        </linearGradient>
        <linearGradient id="paint1_linear_105_2" x1="98.5" y1="12" x2="98.5" y2="92" gradientUnits="userSpaceOnUse">
            <stop stop-color="#0179F3"/>
            <stop offset="1" stop-color="#0190EA"/>
        </linearGradient>
    </defs>
</svg>
