<svg width="1464" height="225" viewBox="0 0 1464 225" fill="none" xmlns="http://www.w3.org/2000/svg">
<g clip-path="url(#clip0_3_7)">
<path d="M16.3807 180V44.7273H62.0881C72.7003 44.7273 81.375 46.6428 88.1122 50.4737C94.8935 54.2607 99.9134 59.3906 103.172 65.8636C106.43 72.3366 108.06 79.5582 108.06 87.5284C108.06 95.4986 106.43 102.742 103.172 109.259C99.9574 115.776 94.9815 120.972 88.2443 124.847C81.5071 128.678 72.8764 130.594 62.3523 130.594H29.5909V116.062H61.8239C69.0895 116.062 74.924 114.808 79.3274 112.298C83.7308 109.788 86.9233 106.397 88.9048 102.126C90.9304 97.8104 91.9432 92.9446 91.9432 87.5284C91.9432 82.1122 90.9304 77.2685 88.9048 72.9972C86.9233 68.7258 83.7088 65.3793 79.2614 62.9574C74.8139 60.4915 68.9134 59.2585 61.5597 59.2585H32.7614V180H16.3807ZM132.333 180V78.5455H147.393V93.8693H148.45C150.299 88.8494 153.646 84.7763 158.49 81.6498C163.333 78.5234 168.794 76.9602 174.87 76.9602C176.015 76.9602 177.446 76.9822 179.164 77.0263C180.881 77.0703 182.18 77.1364 183.061 77.2244V93.0767C182.532 92.9446 181.321 92.7464 179.428 92.4822C177.578 92.174 175.619 92.0199 173.549 92.0199C168.618 92.0199 164.214 93.0547 160.339 95.1243C156.508 97.1499 153.47 99.968 151.224 103.579C149.022 107.146 147.922 111.219 147.922 115.798V180H132.333ZM201.539 180V78.5455H217.127V180H201.539ZM209.465 61.6364C206.426 61.6364 203.806 60.6016 201.605 58.532C199.447 56.4624 198.368 53.9744 198.368 51.0682C198.368 48.1619 199.447 45.674 201.605 43.6044C203.806 41.5348 206.426 40.5 209.465 40.5C212.503 40.5 215.101 41.5348 217.259 43.6044C219.46 45.674 220.561 48.1619 220.561 51.0682C220.561 53.9744 219.46 56.4624 217.259 58.532C215.101 60.6016 212.503 61.6364 209.465 61.6364ZM328.637 78.5455L291.12 180H275.268L237.751 78.5455H254.66L282.666 159.392H283.723L311.728 78.5455H328.637ZM375.98 182.378C369.551 182.378 363.716 181.167 358.476 178.745C353.236 176.279 349.075 172.734 345.992 168.111C342.91 163.443 341.369 157.807 341.369 151.202C341.369 145.389 342.514 140.678 344.803 137.067C347.093 133.412 350.154 130.55 353.985 128.48C357.816 126.411 362.043 124.869 366.666 123.857C371.334 122.8 376.024 121.963 380.735 121.347C386.9 120.554 391.898 119.96 395.729 119.563C399.604 119.123 402.422 118.396 404.183 117.384C405.989 116.371 406.892 114.609 406.892 112.099V111.571C406.892 105.054 405.108 99.9901 401.541 96.3793C398.019 92.7685 392.669 90.9631 385.491 90.9631C378.049 90.9631 372.215 92.5923 367.987 95.8509C363.76 99.1094 360.788 102.588 359.07 106.287L344.275 101.003C346.917 94.8381 350.44 90.0383 354.843 86.6037C359.291 83.125 364.134 80.7031 369.374 79.3381C374.659 77.929 379.855 77.2244 384.963 77.2244C388.221 77.2244 391.964 77.6207 396.191 78.4133C400.463 79.1619 404.58 80.7251 408.543 83.103C412.55 85.4808 415.874 89.0696 418.517 93.8693C421.159 98.669 422.48 105.098 422.48 113.156V180H406.892V166.261H406.099C405.042 168.463 403.281 170.819 400.815 173.329C398.349 175.839 395.068 177.974 390.973 179.736C386.878 181.497 381.88 182.378 375.98 182.378ZM378.357 168.375C384.522 168.375 389.718 167.164 393.945 164.742C398.217 162.32 401.431 159.194 403.589 155.363C405.791 151.532 406.892 147.503 406.892 143.276V129.009C406.231 129.801 404.778 130.528 402.532 131.188C400.33 131.805 397.776 132.355 394.87 132.839C392.008 133.28 389.212 133.676 386.482 134.028C383.796 134.337 381.616 134.601 379.943 134.821C375.892 135.349 372.105 136.208 368.582 137.397C365.103 138.542 362.285 140.281 360.127 142.615C358.014 144.905 356.957 148.031 356.957 151.994C356.957 157.411 358.96 161.506 362.968 164.28C367.019 167.01 372.149 168.375 378.357 168.375ZM495.053 78.5455V91.7557H442.477V78.5455H495.053ZM457.8 54.2386H473.388V150.938C473.388 155.341 474.027 158.643 475.304 160.845C476.625 163.003 478.298 164.456 480.324 165.205C482.393 165.909 484.573 166.261 486.863 166.261C488.58 166.261 489.989 166.173 491.09 165.997C492.191 165.777 493.072 165.601 493.732 165.469L496.903 179.472C495.846 179.868 494.371 180.264 492.477 180.661C490.584 181.101 488.184 181.321 485.278 181.321C480.874 181.321 476.559 180.374 472.332 178.481C468.148 176.587 464.67 173.703 461.896 169.828C459.165 165.953 457.8 161.065 457.8 155.165V54.2386ZM559.949 182.114C550.173 182.114 541.74 179.956 534.651 175.641C527.605 171.281 522.167 165.205 518.336 157.411C514.549 149.572 512.656 140.457 512.656 130.065C512.656 119.673 514.549 110.514 518.336 102.588C522.167 94.6179 527.495 88.4091 534.321 83.9616C541.19 79.4702 549.204 77.2244 558.363 77.2244C563.647 77.2244 568.865 78.1051 574.017 79.8665C579.169 81.6278 583.859 84.4901 588.086 88.4531C592.314 92.3722 595.682 97.5682 598.192 104.041C600.702 110.514 601.957 118.484 601.957 127.952V134.557H523.752V121.082H586.105C586.105 115.358 584.96 110.25 582.67 105.759C580.424 101.267 577.21 97.7223 573.027 95.1243C568.887 92.5263 564 91.2273 558.363 91.2273C552.154 91.2273 546.782 92.7685 542.247 95.8509C537.755 98.8892 534.299 102.852 531.877 107.74C529.455 112.628 528.244 117.868 528.244 123.46V132.443C528.244 140.105 529.565 146.6 532.207 151.928C534.893 157.212 538.614 161.241 543.37 164.016C548.125 166.746 553.652 168.111 559.949 168.111C564.044 168.111 567.743 167.538 571.045 166.393C574.392 165.205 577.276 163.443 579.698 161.109C582.12 158.732 583.991 155.781 585.312 152.259L600.372 156.486C598.787 161.594 596.123 166.085 592.38 169.96C588.637 173.791 584.013 176.786 578.509 178.943C573.005 181.057 566.818 182.114 559.949 182.114ZM716.556 44.7273H732.936V134.293C732.936 143.54 730.757 151.796 726.397 159.062C722.082 166.283 715.983 171.986 708.101 176.169C700.219 180.308 690.972 182.378 680.36 182.378C669.748 182.378 660.5 180.308 652.618 176.169C644.736 171.986 638.615 166.283 634.256 159.062C629.941 151.796 627.783 143.54 627.783 134.293V44.7273H644.164V132.972C644.164 139.577 645.617 145.455 648.523 150.607C651.429 155.715 655.569 159.744 660.941 162.695C666.357 165.601 672.83 167.054 680.36 167.054C687.89 167.054 694.363 165.601 699.779 162.695C705.195 159.744 709.334 155.715 712.196 150.607C715.103 145.455 716.556 139.577 716.556 132.972V44.7273ZM763.535 218.045V78.5455H778.594V94.6619H780.444C781.589 92.9006 783.174 90.6548 785.199 87.9247C787.269 85.1506 790.219 82.6847 794.05 80.527C797.925 78.3253 803.165 77.2244 809.77 77.2244C818.313 77.2244 825.843 79.3601 832.36 83.6314C838.877 87.9027 843.963 93.9574 847.618 101.795C851.273 109.634 853.1 118.881 853.1 129.537C853.1 140.281 851.273 149.594 847.618 157.477C843.963 165.315 838.899 171.391 832.426 175.707C825.953 179.978 818.489 182.114 810.035 182.114C803.518 182.114 798.3 181.035 794.381 178.877C790.461 176.675 787.445 174.187 785.331 171.413C783.218 168.595 781.589 166.261 780.444 164.412H779.123V218.045H763.535ZM778.858 129.273C778.858 136.935 779.981 143.694 782.227 149.55C784.473 155.363 787.753 159.92 792.069 163.223C796.384 166.482 801.668 168.111 807.921 168.111C814.438 168.111 819.876 166.393 824.236 162.959C828.639 159.48 831.942 154.812 834.143 148.956C836.389 143.055 837.512 136.494 837.512 129.273C837.512 122.139 836.411 115.71 834.209 109.986C832.052 104.217 828.771 99.6598 824.368 96.3132C820.008 92.9226 814.526 91.2273 807.921 91.2273C801.58 91.2273 796.252 92.8345 791.937 96.049C787.621 99.2195 784.363 103.667 782.161 109.391C779.959 115.072 778.858 121.699 778.858 129.273ZM892.466 44.7273V180H876.878V44.7273H892.466ZM962.233 182.114C953.074 182.114 945.038 179.934 938.124 175.575C931.255 171.215 925.883 165.116 922.008 157.278C918.177 149.44 916.261 140.281 916.261 129.801C916.261 119.233 918.177 110.008 922.008 102.126C925.883 94.2436 931.255 88.1229 938.124 83.7635C945.038 79.4041 953.074 77.2244 962.233 77.2244C971.392 77.2244 979.406 79.4041 986.276 83.7635C993.189 88.1229 998.561 94.2436 1002.39 102.126C1006.27 110.008 1008.2 119.233 1008.2 129.801C1008.2 140.281 1006.27 149.44 1002.39 157.278C998.561 165.116 993.189 171.215 986.276 175.575C979.406 179.934 971.392 182.114 962.233 182.114ZM962.233 168.111C969.19 168.111 974.915 166.327 979.406 162.761C983.898 159.194 987.222 154.504 989.38 148.692C991.538 142.879 992.616 136.582 992.616 129.801C992.616 123.02 991.538 116.701 989.38 110.844C987.222 104.988 983.898 100.254 979.406 96.6435C974.915 93.0327 969.19 91.2273 962.233 91.2273C955.276 91.2273 949.551 93.0327 945.06 96.6435C940.568 100.254 937.244 104.988 935.086 110.844C932.928 116.701 931.849 123.02 931.849 129.801C931.849 136.582 932.928 142.879 935.086 148.692C937.244 154.504 940.568 159.194 945.06 162.761C949.551 166.327 955.276 168.111 962.233 168.111ZM1061.85 182.378C1055.43 182.378 1049.59 181.167 1044.35 178.745C1039.11 176.279 1034.95 172.734 1031.87 168.111C1028.78 163.443 1027.24 157.807 1027.24 151.202C1027.24 145.389 1028.39 140.678 1030.68 137.067C1032.97 133.412 1036.03 130.55 1039.86 128.48C1043.69 126.411 1047.92 124.869 1052.54 123.857C1057.21 122.8 1061.9 121.963 1066.61 121.347C1072.78 120.554 1077.77 119.96 1081.6 119.563C1085.48 119.123 1088.3 118.396 1090.06 117.384C1091.86 116.371 1092.77 114.609 1092.77 112.099V111.571C1092.77 105.054 1090.98 99.9901 1087.42 96.3793C1083.89 92.7685 1078.54 90.9631 1071.37 90.9631C1063.92 90.9631 1058.09 92.5923 1053.86 95.8509C1049.64 99.1094 1046.66 102.588 1044.95 106.287L1030.15 101.003C1032.79 94.8381 1036.31 90.0383 1040.72 86.6037C1045.17 83.125 1050.01 80.7031 1055.25 79.3381C1060.53 77.929 1065.73 77.2244 1070.84 77.2244C1074.1 77.2244 1077.84 77.6207 1082.07 78.4133C1086.34 79.1619 1090.45 80.7251 1094.42 83.103C1098.42 85.4808 1101.75 89.0696 1104.39 93.8693C1107.03 98.669 1108.35 105.098 1108.35 113.156V180H1092.77V166.261H1091.97C1090.92 168.463 1089.16 170.819 1086.69 173.329C1084.22 175.839 1080.94 177.974 1076.85 179.736C1072.75 181.497 1067.76 182.378 1061.85 182.378ZM1064.23 168.375C1070.4 168.375 1075.59 167.164 1079.82 164.742C1084.09 162.32 1087.31 159.194 1089.46 155.363C1091.67 151.532 1092.77 147.503 1092.77 143.276V129.009C1092.11 129.801 1090.65 130.528 1088.41 131.188C1086.21 131.805 1083.65 132.355 1080.75 132.839C1077.88 133.28 1075.09 133.676 1072.36 134.028C1069.67 134.337 1067.49 134.601 1065.82 134.821C1061.77 135.349 1057.98 136.208 1054.46 137.397C1050.98 138.542 1048.16 140.281 1046 142.615C1043.89 144.905 1042.83 148.031 1042.83 151.994C1042.83 157.411 1044.84 161.506 1048.84 164.28C1052.89 167.01 1058.02 168.375 1064.23 168.375ZM1175.12 182.114C1166.66 182.114 1159.2 179.978 1152.72 175.707C1146.25 171.391 1141.19 165.315 1137.53 157.477C1133.88 149.594 1132.05 140.281 1132.05 129.537C1132.05 118.881 1133.88 109.634 1137.53 101.795C1141.19 93.9574 1146.27 87.9027 1152.79 83.6314C1159.31 79.3601 1166.84 77.2244 1175.38 77.2244C1181.99 77.2244 1187.2 78.3253 1191.03 80.527C1194.91 82.6847 1197.86 85.1506 1199.88 87.9247C1201.95 90.6548 1203.56 92.9006 1204.71 94.6619H1206.03V44.7273H1221.62V180H1206.56V164.412H1204.71C1203.56 166.261 1201.93 168.595 1199.82 171.413C1197.71 174.187 1194.69 176.675 1190.77 178.877C1186.85 181.035 1181.63 182.114 1175.12 182.114ZM1177.23 168.111C1183.48 168.111 1188.77 166.482 1193.08 163.223C1197.4 159.92 1200.68 155.363 1202.92 149.55C1205.17 143.694 1206.29 136.935 1206.29 129.273C1206.29 121.699 1205.19 115.072 1202.99 109.391C1200.79 103.667 1197.53 99.2195 1193.21 96.049C1188.9 92.8345 1183.57 91.2273 1177.23 91.2273C1170.62 91.2273 1165.12 92.9226 1160.72 96.3132C1156.36 99.6598 1153.08 104.217 1150.88 109.986C1148.72 115.71 1147.64 122.139 1147.64 129.273C1147.64 136.494 1148.74 143.055 1150.94 148.956C1153.19 154.812 1156.49 159.48 1160.85 162.959C1165.25 166.393 1170.71 168.111 1177.23 168.111ZM1294.87 182.114C1285.09 182.114 1276.66 179.956 1269.57 175.641C1262.52 171.281 1257.09 165.205 1253.25 157.411C1249.47 149.572 1247.57 140.457 1247.57 130.065C1247.57 119.673 1249.47 110.514 1253.25 102.588C1257.09 94.6179 1262.41 88.4091 1269.24 83.9616C1276.11 79.4702 1284.12 77.2244 1293.28 77.2244C1298.57 77.2244 1303.78 78.1051 1308.94 79.8665C1314.09 81.6278 1318.78 84.4901 1323 88.4531C1327.23 92.3722 1330.6 97.5682 1333.11 104.041C1335.62 110.514 1336.88 118.484 1336.88 127.952V134.557H1258.67V121.082H1321.02C1321.02 115.358 1319.88 110.25 1317.59 105.759C1315.34 101.267 1312.13 97.7223 1307.94 95.1243C1303.81 92.5263 1298.92 91.2273 1293.28 91.2273C1287.07 91.2273 1281.7 92.7685 1277.16 95.8509C1272.67 98.8892 1269.22 102.852 1266.79 107.74C1264.37 112.628 1263.16 117.868 1263.16 123.46V132.443C1263.16 140.105 1264.48 146.6 1267.12 151.928C1269.81 157.212 1273.53 161.241 1278.29 164.016C1283.04 166.746 1288.57 168.111 1294.87 168.111C1298.96 168.111 1302.66 167.538 1305.96 166.393C1309.31 165.205 1312.19 163.443 1314.62 161.109C1317.04 158.732 1318.91 155.781 1320.23 152.259L1335.29 156.486C1333.7 161.594 1331.04 166.085 1327.3 169.96C1323.55 173.791 1318.93 176.786 1313.43 178.943C1307.92 181.057 1301.74 182.114 1294.87 182.114ZM1360.59 180V78.5455H1375.65V93.8693H1376.7C1378.55 88.8494 1381.9 84.7763 1386.74 81.6498C1391.59 78.5234 1397.05 76.9602 1403.12 76.9602C1404.27 76.9602 1405.7 76.9822 1407.42 77.0263C1409.13 77.0703 1410.43 77.1364 1411.31 77.2244V93.0767C1410.79 92.9446 1409.58 92.7464 1407.68 92.4822C1405.83 92.174 1403.87 92.0199 1401.8 92.0199C1396.87 92.0199 1392.47 93.0547 1388.59 95.1243C1384.76 97.1499 1381.72 99.968 1379.48 103.579C1377.28 107.146 1376.18 111.219 1376.18 115.798V180H1360.59Z" fill="url(#paint0_linear_3_7)"/>
<path d="M1420.3 59.9856V54.6358L1443.9 17.2917H1447.78V25.5787H1445.16L1427.33 53.7966V54.2162H1459.11V59.9856H1420.3ZM1445.58 71V58.3597V55.8683V17.2917H1451.77V71H1445.58Z" fill="url(#paint1_linear_3_7)"/>
</g>
<defs>
<linearGradient id="paint0_linear_3_7" x1="10.5" y1="112" x2="1416" y2="128.5" gradientUnits="userSpaceOnUse">
<stop stop-color="#FF4E50"/>
<stop offset="0.145833" stop-color="#FC913A"/>
<stop offset="0.296875" stop-color="#F9D423"/>
<stop offset="0.432292" stop-color="#EAE374"/>
<stop offset="0.583333" stop-color="#7DCE30"/>
<stop offset="0.729167" stop-color="#9ED9E1"/>
<stop offset="0.854167" stop-color="#4393E0"/>
<stop offset="1" stop-color="#0179F3"/>
</linearGradient>
<linearGradient id="paint1_linear_3_7" x1="1440" y1="0" x2="1440" y2="89" gradientUnits="userSpaceOnUse">
<stop stop-color="#0179F3"/>
<stop offset="1" stop-color="#0190EA"/>
</linearGradient>
<clipPath id="clip0_3_7">
<rect width="1464" height="225" fill="white"/>
</clipPath>
</defs>
</svg>
