<svg width="60" height="46" viewBox="0 0 60 46" fill="none" xmlns="http://www.w3.org/2000/svg">
    <path d="M22 45.9613C10.1022 45.2712 0.666687 35.4043 0.666687 23.3333C0.666687 10.8149 10.8149 0.666656 23.3334 0.666656C31.4488 0.666656 38.5683 4.9317 42.5723 11.3426C51.8803 11.6446 59.3334 19.2853 59.3334 28.6667C59.3334 37.7909 52.2832 45.2685 43.3334 45.9496V46H22V45.9613Z" fill="white"/>
    <path d="M22 45.9613C10.1022 45.2712 0.666687 35.4043 0.666687 23.3333C0.666687 10.8149 10.8149 0.666656 23.3334 0.666656C31.4488 0.666656 38.5683 4.9317 42.5723 11.3426C51.8803 11.6446 59.3334 19.2853 59.3334 28.6667C59.3334 37.7909 52.2832 45.2685 43.3334 45.9496V46H22V45.9613Z" fill="url(#paint0_linear_1_252)"/>
    <defs>
        <linearGradient id="paint0_linear_1_252" x1="0.56005" y1="0.239993" x2="44.4447" y2="57.7605" gradientUnits="userSpaceOnUse">
            <stop stop-color="#00C2FF"/>
            <stop offset="1" stop-color="#0075FF"/>
        </linearGradient>
    </defs>
</svg>
