<svg width="512" height="512" viewBox="0 0 512 512" fill="none" xmlns="http://www.w3.org/2000/svg">
<path fill-rule="evenodd" clip-rule="evenodd" d="M512 256C512 321.439 487.446 381.144 447.049 426.404V196.232C447.049 184.021 437.15 174.121 424.939 174.121C412.727 174.121 402.828 184.021 402.828 196.232V465.735C390.664 474.266 377.724 481.766 364.134 488.108V306.785C364.134 285.034 346.501 267.401 324.75 267.401C302.998 267.401 285.365 285.034 285.365 306.785V510.334C275.729 511.435 265.931 512 256 512C241.764 512 227.8 510.838 214.197 508.604V174.121C214.197 152.37 196.564 134.737 174.812 134.737C153.061 134.737 135.428 152.37 135.428 174.122V481.885C128.31 478.078 121.394 473.945 114.699 469.505V294.348C114.699 283.282 105.727 274.31 94.6608 274.31C83.5943 274.31 74.623 283.282 74.623 294.348V436.661C28.5064 390.363 0 326.51 0 256C0 114.615 114.615 0 256 0C397.385 0 512 114.615 512 256Z" fill="white"/>
</svg>
