<svg width="1024" height="1024" viewBox="0 0 1024 1024" fill="none" xmlns="http://www.w3.org/2000/svg">
<rect width="1024" height="1024" fill="#121212"/>
<path fill-rule="evenodd" clip-rule="evenodd" d="M882 512.5C882 607.208 846.465 693.616 788 759.119V426C788 408.327 773.673 394 756 394C738.327 394 724 408.327 724 426V816.042C706.395 828.389 687.667 839.244 668 848.422V586C668 554.52 642.48 529 611 529C579.52 529 554 554.52 554 586V880.589C540.054 882.182 525.872 883 511.5 883C490.897 883 470.687 881.318 451 878.085V394C451 362.52 425.48 337 394 337C362.52 337 337 362.52 337 394V839.416C326.7 833.906 316.69 827.924 307 821.498V568C307 551.984 294.016 539 278 539C261.984 539 249 551.984 249 568V773.965C182.257 706.959 141 614.548 141 512.5C141 307.878 306.878 142 511.5 142C716.122 142 882 307.878 882 512.5Z" fill="#D9D9D9"/>
</svg>
