<svg width="1024" height="1024" viewBox="0 0 1024 1024" fill="none" xmlns="http://www.w3.org/2000/svg">
<rect width="1024" height="1024" fill="#121212"/>
<path d="M465.105 370.151L307.63 796H241.091L83.6156 370.151H154.59L272.142 709.499H276.578L394.13 370.151H465.105ZM727.795 803.763C695.265 803.763 665.969 797.294 639.908 784.356C613.847 771.418 592.961 753.674 577.251 731.125C561.54 708.575 552.946 682.884 551.467 654.05H618.006C620.594 679.742 632.238 700.997 652.939 717.817C673.825 734.452 698.777 742.769 727.795 742.769C751.084 742.769 771.785 737.316 789.898 726.411C808.196 715.506 822.521 700.535 832.871 681.498C843.406 662.275 848.674 640.558 848.674 616.345C848.674 591.578 843.222 569.491 832.317 550.083C821.596 530.491 806.81 515.058 787.957 503.783C769.105 492.509 747.572 486.779 723.359 486.594C705.985 486.409 688.149 489.089 669.851 494.634C651.553 499.994 636.489 506.926 624.66 515.428L560.339 507.665L594.717 228.202H889.706V289.195H652.384L632.423 456.652H635.75C647.394 447.41 661.996 439.74 679.554 433.64C697.113 427.541 715.412 424.491 734.449 424.491C769.197 424.491 800.156 432.809 827.326 449.443C854.681 465.893 876.121 488.442 891.647 517.091C907.358 545.74 915.213 578.455 915.213 615.236C915.213 651.463 907.08 683.808 890.815 712.272C874.735 740.551 852.556 762.915 824.277 779.365C795.997 795.63 763.837 803.763 727.795 803.763Z" fill="url(#paint0_linear_334_34)"/>
<path d="M89.3252 356V303.766H120.645V309.377H95.6504V327.026H118.299V332.637H95.6504V356H89.3252ZM131.479 356V303.766H137.804V350.389H162.084V356H131.479ZM213.917 329.883C213.917 335.392 212.922 340.153 210.933 344.166C208.943 348.178 206.214 351.273 202.746 353.45C199.277 355.626 195.315 356.714 190.86 356.714C186.406 356.714 182.444 355.626 178.975 353.45C175.506 351.273 172.777 348.178 170.788 344.166C168.799 340.153 167.804 335.392 167.804 329.883C167.804 324.374 168.799 319.613 170.788 315.6C172.777 311.587 175.506 308.493 178.975 306.316C182.444 304.14 186.406 303.052 190.86 303.052C195.315 303.052 199.277 304.14 202.746 306.316C206.214 308.493 208.943 311.587 210.933 315.6C212.922 319.613 213.917 324.374 213.917 329.883ZM207.796 329.883C207.796 325.36 207.039 321.543 205.526 318.431C204.029 315.32 201.998 312.965 199.43 311.366C196.88 309.768 194.023 308.969 190.86 308.969C187.698 308.969 184.833 309.768 182.265 311.366C179.715 312.965 177.683 315.32 176.17 318.431C174.673 321.543 173.925 325.36 173.925 329.883C173.925 334.406 174.673 338.223 176.17 341.335C177.683 344.446 179.715 346.801 182.265 348.4C184.833 349.998 187.698 350.797 190.86 350.797C194.023 350.797 196.88 349.998 199.43 348.4C201.998 346.801 204.029 344.446 205.526 341.335C207.039 338.223 207.796 334.406 207.796 329.883ZM234.04 356L219.757 303.766H226.185L237.101 346.308H237.611L248.731 303.766H255.872L266.993 346.308H267.503L278.419 303.766H284.846L270.563 356H264.034L252.506 314.376H252.098L240.569 356H234.04ZM299.052 303.766V356H292.727V303.766H299.052ZM353.155 303.766V356H347.033L318.57 314.988H318.06V356H311.735V303.766H317.856L346.421 344.88H346.931V303.766H353.155ZM372.137 303.766V356H365.811V303.766H372.137ZM381.962 309.377V303.766H421.138V309.377H404.713V356H398.388V309.377H381.962ZM426.411 303.766H433.655L448.141 328.149H448.754L463.24 303.766H470.484L451.61 334.474V356H445.285V334.474L426.411 303.766Z" fill="white"/>
<defs>
<linearGradient id="paint0_linear_334_34" x1="512" y1="40" x2="512" y2="985" gradientUnits="userSpaceOnUse">
<stop stop-color="#D9D9D9"/>
<stop offset="1" stop-color="#D9D9D9"/>
</linearGradient>
</defs>
</svg>
