<svg width="1024" height="1024" viewBox="0 0 1024 1024" fill="none" xmlns="http://www.w3.org/2000/svg">
<rect width="1024" height="1024" fill="#121212"/>
<path d="M452.104 370.153L294.629 796H228.09L70.6155 370.153H141.59L259.142 709.5H263.577L381.129 370.153H452.104ZM524.049 679.557V623L773.568 228.204H814.601V315.813H786.876L598.35 614.128V618.564H934.37V679.557H524.049ZM791.312 796V662.368V636.03V228.204H856.742V796H791.312Z" fill="url(#paint0_linear_334_2)"/>
<path d="M75.3252 356V303.766H106.645V309.377H81.6504V327.026H104.299V332.637H81.6504V356H75.3252ZM117.479 356V303.766H123.804V350.389H148.084V356H117.479ZM199.917 329.883C199.917 335.392 198.922 340.153 196.933 344.166C194.943 348.178 192.214 351.273 188.746 353.45C185.277 355.626 181.315 356.714 176.86 356.714C172.406 356.714 168.444 355.626 164.975 353.45C161.506 351.273 158.777 348.178 156.788 344.166C154.799 340.153 153.804 335.392 153.804 329.883C153.804 324.374 154.799 319.613 156.788 315.6C158.777 311.587 161.506 308.493 164.975 306.316C168.444 304.14 172.406 303.052 176.86 303.052C181.315 303.052 185.277 304.14 188.746 306.316C192.214 308.493 194.943 311.587 196.933 315.6C198.922 319.613 199.917 324.374 199.917 329.883ZM193.796 329.883C193.796 325.36 193.039 321.543 191.526 318.431C190.029 315.32 187.998 312.965 185.43 311.366C182.88 309.768 180.023 308.969 176.86 308.969C173.698 308.969 170.833 309.768 168.265 311.366C165.715 312.965 163.683 315.32 162.17 318.431C160.673 321.543 159.925 325.36 159.925 329.883C159.925 334.406 160.673 338.223 162.17 341.335C163.683 344.446 165.715 346.801 168.265 348.4C170.833 349.998 173.698 350.797 176.86 350.797C180.023 350.797 182.88 349.998 185.43 348.4C187.998 346.801 190.029 344.446 191.526 341.335C193.039 338.223 193.796 334.406 193.796 329.883ZM220.04 356L205.757 303.766H212.185L223.101 346.308H223.611L234.731 303.766H241.872L252.993 346.308H253.503L264.419 303.766H270.846L256.563 356H250.034L238.506 314.376H238.098L226.569 356H220.04ZM285.052 303.766V356H278.727V303.766H285.052ZM339.155 303.766V356H333.033L304.57 314.988H304.06V356H297.735V303.766H303.856L332.421 344.88H332.931V303.766H339.155ZM358.137 303.766V356H351.811V303.766H358.137ZM367.962 309.377V303.766H407.138V309.377H390.713V356H384.388V309.377H367.962ZM412.411 303.766H419.655L434.141 328.149H434.754L449.24 303.766H456.484L437.61 334.474V356H431.285V334.474L412.411 303.766Z" fill="white"/>
<defs>
<linearGradient id="paint0_linear_334_2" x1="512" y1="40" x2="512" y2="985" gradientUnits="userSpaceOnUse">
<stop stop-color="#0094FF"/>
<stop offset="1" stop-color="#0094FF"/>
</linearGradient>
</defs>
</svg>
