<svg width="1024" height="1024" viewBox="0 0 1024 1024" fill="none" xmlns="http://www.w3.org/2000/svg">
<rect width="1024" height="1024" fill="#121212"/>
<path d="M512.155 441.334L441.863 511.59L512.232 581.923L582.524 511.667L512.155 441.334Z" fill="#D9D9D9"/>
<path d="M512.15 160L441.785 230.329L705.16 493.57C709.96 498.368 712.653 504.882 712.657 511.663C712.652 518.456 709.952 524.966 705.16 529.755L582.52 652.334L652.888 722.667L792.283 583.342C831.888 543.758 831.889 479.577 792.283 439.992L512.15 160Z" fill="#D9D9D9"/>
<path d="M512.846 863L583.211 792.671L319.836 529.43C315.036 524.632 312.343 518.118 312.339 511.337C312.344 504.544 315.044 498.034 319.836 493.245L442.476 370.666L372.108 300.333L232.713 439.658C193.108 479.242 193.107 543.423 232.713 583.008L512.846 863Z" fill="#D9D9D9"/>
</svg>
