<svg width="1024" height="1024" viewBox="0 0 1024 1024" fill="none" xmlns="http://www.w3.org/2000/svg">
<rect width="1024" height="1024" fill="#121212"/>
<path fill-rule="evenodd" clip-rule="evenodd" d="M960 512C960 626.518 917.032 731.001 846.338 810.205V400.713C846.338 383.039 832.011 368.713 814.338 368.713H800.95C783.277 368.713 768.95 383.039 768.95 400.713V879.035C747.663 893.965 725.018 907.091 701.236 918.189V595.951C701.236 560.605 672.582 531.951 637.236 531.951H627.39C592.044 531.951 563.39 560.605 563.39 595.951V957.085C546.527 959.01 529.379 960 512 960C487.087 960 462.65 957.967 438.844 954.057V363.789C438.844 328.443 410.19 299.789 374.844 299.789H364.998C329.652 299.789 300.998 328.443 300.998 363.789V907.299C288.543 900.637 276.44 893.403 264.724 885.634V573.043C264.724 557.027 251.74 544.043 235.724 544.043H223.591C207.575 544.043 194.591 557.027 194.591 573.043V828.158C113.887 747.136 64 635.394 64 512C64 264.576 264.576 64 512 64C759.424 64 960 264.576 960 512Z" fill="#D9D9D9"/>
</svg>
